<?xml version="1.0" encoding="UTF-8"?><svg version="1.1" xmlns="http://www.w3.org/2000/svg" xmlns:xlink="http://www.w3.org/1999/xlink" width="512" height="512" viewBox="0,0,256,256"><g transform=""><g fill="#0071b2" fill-rule="evenodd" stroke="none" stroke-width="1" stroke-linecap="butt" stroke-linejoin="miter" stroke-miterlimit="10" stroke-dasharray="" stroke-dashoffset="0" font-family="none" font-weight="none" font-size="none" text-anchor="none" style="mix-blend-mode: normal"><g transform="scale(0.5,0.5)"><path d="M263,13c132,0 238,107 238,238c0,132 -107,238 -238,238c-132,0 -238,-107 -238,-238c0,-132 107,-238 238,-238zM153,137h219c10,0 18,8 18,18v144c0,10 -8,18 -18,18h-72l-24,37c0,0 -5,10 -12,11v0v0v0v0c-8,-1 -12,-11 -12,-11l-24,-37h-72c-10,0 -18,-8 -18,-18v-144c0,-10 8,-18 18,-18v0z"></path></g></g></g></svg>